<svg width="14" height="14" viewBox="0 0 14 14" fill="none" xmlns="http://www.w3.org/2000/svg">
<path id="Icon" fill-rule="evenodd" clip-rule="evenodd" d="M2.13889 1.16667C1.60195 1.16667 1.16667 1.60195 1.16667 2.13889V4.08333C1.16667 4.4055 0.905499 4.66667 0.583333 4.66667C0.261167 4.66667 0 4.4055 0 4.08333V2.13889C0 0.957613 0.957613 0 2.13889 0H4.08333C4.4055 0 4.66667 0.261167 4.66667 0.583333C4.66667 0.905499 4.4055 1.16667 4.08333 1.16667H2.13889ZM9.33333 0.583333C9.33333 0.261167 9.5945 0 9.91667 0H11.8611C13.0424 0 14 0.957613 14 2.13889V4.08333C14 4.4055 13.7388 4.66667 13.4167 4.66667C13.0945 4.66667 12.8333 4.4055 12.8333 4.08333V2.13889C12.8333 1.60195 12.3981 1.16667 11.8611 1.16667H9.91667C9.5945 1.16667 9.33333 0.905499 9.33333 0.583333ZM0.583333 9.33333C0.905499 9.33333 1.16667 9.5945 1.16667 9.91667V11.8611C1.16667 12.3981 1.60195 12.8333 2.13889 12.8333H4.08333C4.4055 12.8333 4.66667 13.0945 4.66667 13.4167C4.66667 13.7388 4.4055 14 4.08333 14H2.13889C0.957613 14 0 13.0424 0 11.8611V9.91667C0 9.5945 0.261167 9.33333 0.583333 9.33333ZM13.4167 9.33333C13.7388 9.33333 14 9.5945 14 9.91667V11.8611C14 13.0424 13.0424 14 11.8611 14H9.91667C9.5945 14 9.33333 13.7388 9.33333 13.4167C9.33333 13.0945 9.5945 12.8333 9.91667 12.8333H11.8611C12.3981 12.8333 12.8333 12.3981 12.8333 11.8611V9.91667C12.8333 9.5945 13.0945 9.33333 13.4167 9.33333Z" fill="#829399"/>
</svg>
