<svg width="20" height="20" viewBox="0 0 20 20" fill="none" xmlns="http://www.w3.org/2000/svg">
<g id="more-vertical">
<g id="Icon">
<path d="M10 10.832C10.4602 10.832 10.8333 10.4589 10.8333 9.9987C10.8333 9.53846 10.4602 9.16536 10 9.16536C9.53977 9.16536 9.16667 9.53846 9.16667 9.9987C9.16667 10.4589 9.53977 10.832 10 10.832Z" stroke="#98A2B3" stroke-width="1.66667" stroke-linecap="round" stroke-linejoin="round"/>
<path d="M10 4.9987C10.4602 4.9987 10.8333 4.6256 10.8333 4.16536C10.8333 3.70513 10.4602 3.33203 10 3.33203C9.53977 3.33203 9.16667 3.70513 9.16667 4.16536C9.16667 4.6256 9.53977 4.9987 10 4.9987Z" stroke="#98A2B3" stroke-width="1.66667" stroke-linecap="round" stroke-linejoin="round"/>
<path d="M10 16.6654C10.4602 16.6654 10.8333 16.2923 10.8333 15.832C10.8333 15.3718 10.4602 14.9987 10 14.9987C9.53977 14.9987 9.16667 15.3718 9.16667 15.832C9.16667 16.2923 9.53977 16.6654 10 16.6654Z" stroke="#98A2B3" stroke-width="1.66667" stroke-linecap="round" stroke-linejoin="round"/>
</g>
</g>
</svg>
