<svg width="20" height="20" viewBox="0 0 20 20" fill="none" xmlns="http://www.w3.org/2000/svg">
<g id="more-vertical">
<g id="Icon">
<path d="M10.0003 10.832C10.4606 10.832 10.8337 10.4589 10.8337 9.9987C10.8337 9.53846 10.4606 9.16536 10.0003 9.16536C9.54009 9.16536 9.16699 9.53846 9.16699 9.9987C9.16699 10.4589 9.54009 10.832 10.0003 10.832Z" stroke="#98A2B3" stroke-width="1.66667" stroke-linecap="round" stroke-linejoin="round"/>
<path d="M10.0003 4.9987C10.4606 4.9987 10.8337 4.6256 10.8337 4.16536C10.8337 3.70513 10.4606 3.33203 10.0003 3.33203C9.54009 3.33203 9.16699 3.70513 9.16699 4.16536C9.16699 4.6256 9.54009 4.9987 10.0003 4.9987Z" stroke="#98A2B3" stroke-width="1.66667" stroke-linecap="round" stroke-linejoin="round"/>
<path d="M10.0003 16.6654C10.4606 16.6654 10.8337 16.2923 10.8337 15.832C10.8337 15.3718 10.4606 14.9987 10.0003 14.9987C9.54009 14.9987 9.16699 15.3718 9.16699 15.832C9.16699 16.2923 9.54009 16.6654 10.0003 16.6654Z" stroke="#98A2B3" stroke-width="1.66667" stroke-linecap="round" stroke-linejoin="round"/>
</g>
</g>
</svg>
