<svg width="18" height="6" viewBox="0 0 18 6" fill="none" xmlns="http://www.w3.org/2000/svg">
<path id="Icon" fill-rule="evenodd" clip-rule="evenodd" d="M17.2502 0C17.6644 0 18.0002 0.335786 18.0002 0.75V5.25C18.0002 5.66421 17.6644 6 17.2502 6H12.7502C12.336 6 12.0002 5.66421 12.0002 5.25C12.0002 4.83579 12.336 4.5 12.7502 4.5H15.7068C14.0327 2.77062 11.5454 1.87501 9.00022 1.87501C5.93962 1.875 2.9628 3.17004 1.38296 5.65266C1.16058 6.00211 0.697017 6.10513 0.347561 5.88275C-0.00189561 5.66037 -0.104911 5.1968 0.11747 4.84734C2.03763 1.82994 5.56081 0.375 9.00022 0.375005C11.728 0.375009 14.5085 1.29019 16.5002 3.17417V0.75C16.5002 0.335786 16.836 0 17.2502 0Z" fill="#829399"/>
</svg>
