<svg width="18" height="6" viewBox="0 0 18 6" fill="none" xmlns="http://www.w3.org/2000/svg">
<path id="Icon" fill-rule="evenodd" clip-rule="evenodd" d="M0.75 0C1.16421 0 1.5 0.335786 1.5 0.75V3.17417C3.4917 1.29019 6.27219 0.375009 9 0.375005C12.4394 0.375 15.9626 1.82994 17.8827 4.84734C18.1051 5.1968 18.0021 5.66037 17.6527 5.88275C17.3032 6.10513 16.8396 6.00211 16.6173 5.65266C15.0374 3.17004 12.0606 1.875 9 1.87501C6.45481 1.87501 3.96755 2.77062 2.29345 4.5H5.25C5.66421 4.5 6 4.83579 6 5.25C6 5.66421 5.66421 6 5.25 6H0.75C0.335786 6 0 5.66421 0 5.25V0.75C0 0.335786 0.335786 0 0.75 0Z" fill="#829399"/>
</svg>
