<svg width="16" height="21" viewBox="0 0 16 21" fill="none" xmlns="http://www.w3.org/2000/svg">
<path id="Approval" d="M8.00403 0C6.81932 0 5.67834 0.475601 4.85326 1.25454C4.02818 2.0336 3.51654 3.16647 3.7278 4.39083L4.87254 11.0566H2.53705C1.286 11.0566 0.257202 12.0795 0.257202 13.3316V18.3148H0.257374C0.256685 18.4794 0.321822 18.6375 0.438144 18.7539C0.554633 18.8704 0.712657 18.9355 0.877223 18.9348H15.1245C15.2893 18.9355 15.4473 18.8704 15.5638 18.7539C15.6801 18.6375 15.7452 18.4794 15.7446 18.3148V13.3316C15.7446 12.0795 14.717 11.0566 13.4659 11.0566H11.1308L12.2804 4.39083C12.4915 3.16647 11.9752 2.0336 11.1501 1.25454C10.3248 0.475646 9.1887 0 8.00418 0H8.00403ZM8.00403 1.23641C8.85116 1.23641 9.71484 1.5976 10.302 2.15196C10.8891 2.70633 11.1974 3.40284 11.0631 4.18089L9.87718 11.0566H6.12571L4.94475 4.18089C4.81051 3.40284 5.11397 2.70631 5.7011 2.15196C6.28822 1.59762 7.15671 1.23641 8.00385 1.23641H8.00403ZM2.53688 12.292H13.4659C14.0549 12.292 14.5093 12.7437 14.5093 13.3318V17.6997H1.49365V13.3318C1.49365 12.7437 1.94808 12.292 2.53705 12.292H2.53688ZM1.9989 19.7646C1.83295 19.7612 1.67235 19.8246 1.5536 19.9407C1.43505 20.0571 1.36801 20.2161 1.36801 20.3822C1.36801 20.5484 1.43505 20.7074 1.5536 20.8237C1.67233 20.9399 1.83294 21.0035 1.9989 20.9999H14.0034C14.1695 21.0035 14.3301 20.9399 14.4489 20.8237C14.5674 20.7074 14.6345 20.5484 14.6345 20.3822C14.6345 20.2161 14.5674 20.0571 14.4489 19.9407C14.3302 19.8246 14.1696 19.7612 14.0034 19.7646H1.9989Z" fill="#031413" fill-opacity="0.7"/>
</svg>
