<svg width="21" height="20" viewBox="0 0 21 20" fill="none" xmlns="http://www.w3.org/2000/svg">
<g id="ArrowRise-s">
<path id="Vector 647 (Stroke)" fill-rule="evenodd" clip-rule="evenodd" d="M11.0092 7.16841L17.6931 5.23047L16.0294 11.9878L13.9541 9.99549L10.6064 13.4827C10.4928 13.601 10.3357 13.668 10.1716 13.668C10.0075 13.668 9.85052 13.601 9.73687 13.4827L7.27878 10.9222L3.66354 14.688C3.43303 14.9281 3.05152 14.9359 2.8114 14.7054C2.57129 14.4749 2.5635 14.0934 2.79401 13.8533L6.84401 9.63452C6.95766 9.51614 7.11467 9.44922 7.27878 9.44922C7.44288 9.44922 7.59989 9.51614 7.71354 9.63452L10.1716 12.195L13.0846 9.16074L11.0092 7.16841Z" fill="#18AB5C"/>
</g>
</svg>
