<svg width="16" height="16" viewBox="0 0 16 16" fill="none" xmlns="http://www.w3.org/2000/svg">
<g id="Broadcast">
<g id="Vector">
<path fill-rule="evenodd" clip-rule="evenodd" d="M8.00006 5.50073C8.00006 5.50073 9.0356 5.50073 9.76783 6.23297C9.76783 6.23297 10.5001 6.9652 10.5001 8.00073C10.5001 8.00073 10.5001 9.03627 9.76783 9.7685C9.76783 9.7685 9.03559 10.5007 8.00006 10.5007C8.00006 10.5007 6.96453 10.5007 6.23229 9.7685C6.23229 9.7685 5.50006 9.03627 5.50006 8.00073C5.50006 8.00073 5.50006 6.9652 6.23229 6.23297C6.23229 6.23297 6.96453 5.50073 8.00006 5.50073ZM8.00006 6.50073C8.00006 6.50073 7.37874 6.50073 6.9394 6.94007C6.9394 6.94007 6.50006 7.37941 6.50006 8.00073C6.50006 8.00073 6.50006 8.62205 6.9394 9.06139C6.9394 9.06139 7.37874 9.50073 8.00006 9.50073C8.00006 9.50073 8.62138 9.50073 9.06072 9.06139C9.06072 9.06139 9.50006 8.62205 9.50006 8.00073C9.50006 8.00073 9.50006 7.37941 9.06072 6.94007C9.06072 6.94007 8.62138 6.50073 8.00006 6.50073Z" fill="#1C1C1C"/>
<path d="M5.17217 5.17321C5.26593 5.07944 5.31881 4.95207 5.31881 4.81946C5.31881 4.68695 5.2662 4.55985 5.17256 4.4661C5.07879 4.37233 4.95142 4.31946 4.81881 4.31946C4.68629 4.31946 4.5592 4.37206 4.46545 4.46571C3.77418 5.15622 3.39541 6.05688 3.39541 6.05688C2.99994 6.9876 2.99994 8.00071 2.99994 8.00071C2.99994 9.01381 3.39613 9.94624 3.39613 9.94624C3.77418 10.8452 4.46545 11.5357 4.46545 11.5357C4.5592 11.6294 4.68629 11.682 4.81881 11.682C4.95142 11.6819 5.07884 11.6291 5.17256 11.5353C5.2662 11.4416 5.31881 11.3145 5.31881 11.182C5.31873 11.0494 5.26599 10.9219 5.17217 10.8282C4.61984 10.2765 4.31649 9.55518 4.31649 9.55518C3.99994 8.81017 3.99994 8.00071 3.99994 8.00071C3.99994 7.19124 4.31721 6.44454 4.31721 6.44454C4.61985 5.72492 5.17217 5.17321 5.17217 5.17321Z" fill="#1C1C1C"/>
<path d="M11.5349 4.4659C12.226 5.15635 12.604 6.05518 12.604 6.05518C13.0002 6.9876 13.0002 8.00071 13.0002 8.00071C13.0002 9.01381 12.6047 9.94454 12.6047 9.94454C12.2259 10.8452 11.5347 11.5357 11.5347 11.5357C11.4472 11.6231 11.3304 11.675 11.2069 11.6813C11.1984 11.6817 11.1898 11.682 11.1813 11.682C11.0486 11.682 10.9213 11.6292 10.8276 11.5353C10.7397 11.4474 10.6878 11.3299 10.6819 11.2057C10.6815 11.1978 10.6813 11.1899 10.6813 11.182C10.6814 11.0493 10.7341 10.9219 10.8279 10.8282C11.3803 10.2765 11.6829 9.55688 11.6829 9.55688C12.0002 8.81017 12.0002 8.00071 12.0002 8.00071C12.0002 7.19124 11.6836 6.44624 11.6836 6.44624C11.3803 5.72492 10.8279 5.17321 10.8279 5.17321C10.7341 5.07942 10.6813 4.95216 10.6813 4.81946C10.6813 4.68797 10.7331 4.56178 10.8255 4.4682L10.8276 4.4661C10.9104 4.38319 11.0197 4.33201 11.1364 4.32148C11.1512 4.32014 11.1661 4.31947 11.181 4.31946C11.3114 4.31946 11.4369 4.37038 11.5303 4.46136L11.5349 4.4659Z" fill="#1C1C1C"/>
<path d="M3.4036 3.40433L3.40588 3.40204C3.49825 3.30846 3.55005 3.18227 3.55005 3.05078C3.55005 2.91801 3.49724 2.7907 3.40328 2.6969L3.399 2.69268C3.30563 2.6017 3.18042 2.55078 3.05005 2.55078C3.0352 2.55079 3.01991 2.55147 3.00512 2.5528C2.88835 2.56334 2.779 2.61457 2.69617 2.69755C1.66247 3.73325 1.08988 5.08021 1.08988 5.08021C0.5 6.48184 0.5 8.00078 0.5 8.00078C0.5 9.51972 1.0892 10.9197 1.0892 10.9197C1.66229 12.2682 2.69617 13.304 2.69617 13.304C2.78985 13.3979 2.91698 13.4507 3.04959 13.4508C3.05744 13.4508 3.06576 13.4506 3.07361 13.4502C3.19777 13.4444 3.3153 13.3925 3.40328 13.3047C3.49724 13.2109 3.55005 13.0836 3.55005 12.9508C3.55005 12.9423 3.54983 12.9338 3.5494 12.9254C3.54312 12.8019 3.49129 12.6851 3.40393 12.5976C2.50687 11.6988 2.0109 10.5318 2.0109 10.5318C1.5 9.31787 1.5 8.00078 1.5 8.00078C1.5 6.68369 2.01022 5.47135 2.01022 5.47135C2.50678 4.30293 3.4036 3.40433 3.4036 3.40433Z" fill="#1C1C1C"/>
<path d="M13.3043 2.69786L13.3036 2.69723C13.21 2.60357 13.083 2.5509 12.9505 2.55078C12.8181 2.55078 12.6906 2.60333 12.5968 2.6969C12.5031 2.79067 12.4501 2.91817 12.4501 3.05078C12.4501 3.18323 12.5026 3.31027 12.5962 3.40401C13.4932 4.30271 13.9892 5.46973 13.9892 5.46973C14.5001 6.68369 14.5001 8.00078 14.5001 8.00078C14.5001 9.31787 13.9899 10.5302 13.9899 10.5302C13.4932 11.6988 12.5962 12.5976 12.5962 12.5976C12.5026 12.6913 12.4501 12.8183 12.4501 12.9508C12.4502 13.0834 12.503 13.211 12.5968 13.3047C12.6906 13.3982 12.8176 13.4508 12.9501 13.4508C13.0827 13.4507 13.2103 13.3979 13.304 13.304C14.3378 12.2682 14.9102 10.9213 14.9102 10.9213C15.5001 9.51972 15.5001 8.00078 15.5001 8.00078C15.5001 6.48184 14.9109 5.08183 14.9109 5.08183C14.3379 3.73353 13.3043 2.69786 13.3043 2.69786Z" fill="#1C1C1C"/>
</g>
</g>
</svg>
