<svg width="12" height="12" viewBox="0 0 12 12" fill="none" xmlns="http://www.w3.org/2000/svg">
<g id="close (4) 1" clip-path="url(#clip0_21_58608)">
<path id="Vector" d="M7.09938 6.01169L11.7719 1.33898C12.076 1.03504 12.076 0.543614 11.7719 0.239674C11.468 -0.0642663 10.9766 -0.0642663 10.6726 0.239674L5.99993 4.91238L1.32737 0.239674C1.02329 -0.0642663 0.532002 -0.0642663 0.228062 0.239674C-0.0760206 0.543614 -0.0760206 1.03504 0.228062 1.33898L4.90062 6.01169L0.228062 10.6844C-0.0760206 10.9883 -0.0760206 11.4798 0.228062 11.7837C0.379534 11.9353 0.578696 12.0115 0.777716 12.0115C0.976736 12.0115 1.17576 11.9353 1.32737 11.7837L5.99993 7.111L10.6726 11.7837C10.8243 11.9353 11.0233 12.0115 11.2223 12.0115C11.4213 12.0115 11.6203 11.9353 11.7719 11.7837C12.076 11.4798 12.076 10.9883 11.7719 10.6844L7.09938 6.01169Z" fill="black"/>
</g>
<defs>
<clipPath id="clip0_21_58608">
<rect width="12" height="12" fill="white"/>
</clipPath>
</defs>
</svg>
