<svg width="20" height="20" viewBox="0 0 20 20" fill="none" xmlns="http://www.w3.org/2000/svg">
<g id="Group">
<path id="Vector" d="M3.70049 8.2H5.50049C7.30049 8.2 8.20049 7.3 8.20049 5.5V3.7C8.20049 1.9 7.30049 1 5.50049 1H3.70049C1.90049 1 1.00049 1.9 1.00049 3.7V5.5C1.00049 7.3 1.90049 8.2 3.70049 8.2Z" stroke="#A86128" stroke-width="1.5" stroke-miterlimit="10" stroke-linecap="round" stroke-linejoin="round"/>
<path id="Vector_2" d="M14.5013 8.2H16.3013C18.1013 8.2 19.0013 7.3 19.0013 5.5V3.7C19.0013 1.9 18.1013 1 16.3013 1H14.5013C12.7013 1 11.8013 1.9 11.8013 3.7V5.5C11.8013 7.3 12.7013 8.2 14.5013 8.2Z" stroke="#A86128" stroke-width="1.5" stroke-miterlimit="10" stroke-linecap="round" stroke-linejoin="round"/>
<path id="Vector_3" d="M14.5013 19.0008H16.3013C18.1013 19.0008 19.0013 18.1008 19.0013 16.3008V14.5008C19.0013 12.7008 18.1013 11.8008 16.3013 11.8008H14.5013C12.7013 11.8008 11.8013 12.7008 11.8013 14.5008V16.3008C11.8013 18.1008 12.7013 19.0008 14.5013 19.0008Z" stroke="#A86128" stroke-width="1.5" stroke-miterlimit="10" stroke-linecap="round" stroke-linejoin="round"/>
<path id="Vector_4" d="M3.70049 19.0008H5.50049C7.30049 19.0008 8.20049 18.1008 8.20049 16.3008V14.5008C8.20049 12.7008 7.30049 11.8008 5.50049 11.8008H3.70049C1.90049 11.8008 1.00049 12.7008 1.00049 14.5008V16.3008C1.00049 18.1008 1.90049 19.0008 3.70049 19.0008Z" stroke="#A86128" stroke-width="1.5" stroke-miterlimit="10" stroke-linecap="round" stroke-linejoin="round"/>
</g>
</svg>
