<svg width="22" height="23" viewBox="0 0 22 23" fill="none" xmlns="http://www.w3.org/2000/svg">
<g id="Group">
<g id="Group_2">
<g id="Group_3">
<path id="Vector" d="M6.26172 1V4.15786" stroke="#031413" stroke-opacity="0.7" stroke-width="1.5" stroke-miterlimit="10" stroke-linecap="round" stroke-linejoin="round"/>
<path id="Vector_2" d="M14.6836 1V4.15786" stroke="#031413" stroke-opacity="0.7" stroke-width="1.5" stroke-miterlimit="10" stroke-linecap="round" stroke-linejoin="round"/>
<path id="Vector_3" d="M17.0012 21.4204C18.8615 21.4204 20.3696 19.9123 20.3696 18.052C20.3696 16.1917 18.8615 14.6836 17.0012 14.6836C15.1409 14.6836 13.6328 16.1917 13.6328 18.052C13.6328 19.9123 15.1409 21.4204 17.0012 21.4204Z" stroke="#031413" stroke-opacity="0.7" stroke-width="1.5" stroke-linecap="round" stroke-linejoin="round"/>
<path id="Vector_4" d="M21.0018 22.0526L19.9492 21" stroke="#031413" stroke-opacity="0.7" stroke-width="1.5" stroke-linecap="round" stroke-linejoin="round"/>
<path id="Vector_5" d="M1.52734 8.46094H19.4219" stroke="#031413" stroke-opacity="0.7" stroke-width="1.5" stroke-miterlimit="10" stroke-linecap="round" stroke-linejoin="round"/>
<path id="Vector_6" d="M1 12.5885V7.84122C1 4.68336 2.57893 2.57812 6.2631 2.57812H14.6841C18.3682 2.57812 19.9472 4.68336 19.9472 7.84122V12.578" stroke="#031413" stroke-opacity="0.7" stroke-width="1.5" stroke-miterlimit="10" stroke-linecap="round" stroke-linejoin="round"/>
<path id="Vector_7" d="M11.9157 22.0522H6.2631C2.57893 22.0522 1 19.9469 1 16.7891" stroke="#031413" stroke-opacity="0.7" stroke-width="1.5" stroke-miterlimit="10" stroke-linecap="round" stroke-linejoin="round"/>
</g>
<path id="Vector_8" d="M10.4688 13.3164H10.4787" stroke="#031413" stroke-opacity="0.7" stroke-width="1.5" stroke-linecap="round" stroke-linejoin="round"/>
<path id="Vector_9" d="M6.57422 13.3164H6.5841" stroke="#031413" stroke-opacity="0.7" stroke-width="1.5" stroke-linecap="round" stroke-linejoin="round"/>
<path id="Vector_10" d="M6.57422 16.4766H6.5841" stroke="#031413" stroke-opacity="0.7" stroke-width="1.5" stroke-linecap="round" stroke-linejoin="round"/>
</g>
</g>
</svg>
