<svg width="25" height="35" viewBox="0 0 25 35" fill="none" xmlns="http://www.w3.org/2000/svg">
<g id="Group 1000004466">
<path id="Vector" d="M17.7849 26.449C16.5457 24.9524 15.6709 24.1905 15.6709 20.0643C15.6709 16.2857 13.7156 14.9395 12.1063 14.2857C11.8926 14.199 11.6913 14 11.6262 13.7833C11.3439 12.8352 10.5525 12 9.50058 12C8.44863 12 7.65677 12.8357 7.37738 13.7843C7.31223 14.0033 7.11101 14.199 6.89724 14.2857C5.28603 14.9405 3.33268 16.2819 3.33268 20.0643C3.33027 24.1905 2.45541 24.9524 1.21624 26.449C0.70281 27.069 1.15254 28 2.05056 28H16.9554C17.8486 28 18.2954 27.0662 17.7849 26.449Z" stroke="#031413" stroke-opacity="0.7" stroke-width="1.5" stroke-linecap="round" stroke-linejoin="round"/>
<path id="Vector_2" d="M13 31V31.6C13 32.2365 12.6313 32.847 11.9749 33.2971C11.3185 33.7471 10.4283 34 9.5 34C8.57174 34 7.6815 33.7471 7.02513 33.2971C6.36875 32.847 6 32.2365 6 31.6V31" stroke="#031413" stroke-opacity="0.7" stroke-width="1.5" stroke-linecap="round" stroke-linejoin="round"/>
<circle id="Ellipse 3" cx="21.5" cy="3.5" r="3.5" fill="#FF6767"/>
</g>
</svg>
