<svg width="16" height="16" viewBox="0 0 16 16" fill="none" xmlns="http://www.w3.org/2000/svg">
<g id="Growth Indicator">
<circle id="Circle" cx="7.58526" cy="7.58526" r="7.58526" fill="#04CE00"/>
<path id="Arrow" d="M9.28523 6.78186L9.08169 6.9854C7.99256 8.07453 6.90333 9.16377 5.81398 10.2531C5.59362 10.4735 5.33324 10.5217 5.07318 10.4014C4.82265 10.2836 4.68516 10.068 4.72168 9.8073C4.75449 9.61895 4.84335 9.44487 4.97665 9.30782C6.02991 8.23552 7.09681 7.17687 8.15958 6.1141L8.3609 5.91278C8.29594 5.90168 8.23044 5.89405 8.16467 5.88992C7.73854 5.88801 7.31209 5.89214 6.88629 5.88674C6.54907 5.88293 6.31632 5.65082 6.31187 5.32821C6.30743 4.97638 6.51859 4.74046 6.87136 4.73824C7.85147 4.73188 8.83106 4.73114 9.81011 4.73601C10.2061 4.73823 10.429 4.95225 10.4363 5.34377C10.4543 6.31562 10.465 7.28758 10.4684 8.25965C10.4696 8.61592 10.2378 8.82549 9.88378 8.82263C9.54973 8.81946 9.33 8.60481 9.31984 8.2587C9.30905 7.84781 9.30809 7.43661 9.30206 7.02541C9.30079 6.96063 9.29254 6.89713 9.28523 6.78186Z" fill="white"/>
</g>
</svg>
