<svg width="18" height="19" viewBox="0 0 18 19" fill="none" xmlns="http://www.w3.org/2000/svg">
<path id="Icon" fill-rule="evenodd" clip-rule="evenodd" d="M6.00098 1.55469C4.62026 1.55469 3.50098 2.67398 3.50098 4.05469C3.50098 5.4354 4.62026 6.55469 6.00098 6.55469C7.38169 6.55469 8.50098 5.4354 8.50098 4.05469C8.50098 2.67398 7.38169 1.55469 6.00098 1.55469ZM2.00098 4.05469C2.00098 1.84555 3.79184 0.0546875 6.00098 0.0546875C8.21012 0.0546875 10.001 1.84555 10.001 4.05469C10.001 6.26383 8.21012 8.05469 6.00098 8.05469C3.79184 8.05469 2.00098 6.26383 2.00098 4.05469ZM11.251 0.804688C11.251 0.390474 11.5868 0.0546875 12.001 0.0546875C14.2101 0.0546875 16.001 1.84555 16.001 4.05469C16.001 6.26383 14.2101 8.05469 12.001 8.05469C11.5868 8.05469 11.251 7.7189 11.251 7.30469C11.251 6.89047 11.5868 6.55469 12.001 6.55469C13.3817 6.55469 14.501 5.4354 14.501 4.05469C14.501 2.67398 13.3817 1.55469 12.001 1.55469C11.5868 1.55469 11.251 1.2189 11.251 0.804688ZM0.000976562 15.6797C0.000976562 12.5731 2.51937 10.0547 5.62598 10.0547H6.37598C9.48258 10.0547 12.001 12.5731 12.001 15.6797C12.001 16.9914 10.9377 18.0547 9.62598 18.0547H2.37598C1.0643 18.0547 0.000976562 16.9914 0.000976562 15.6797ZM5.62598 11.5547C3.3478 11.5547 1.50098 13.4015 1.50098 15.6797C1.50098 16.1629 1.89273 16.5547 2.37598 16.5547H9.62598C10.1092 16.5547 10.501 16.1629 10.501 15.6797C10.501 13.4015 8.65415 11.5547 6.37598 11.5547H5.62598ZM11.501 10.8047C11.501 10.3905 11.8368 10.0547 12.251 10.0547H12.376C15.4826 10.0547 18.001 12.5731 18.001 15.6797C18.001 16.9914 16.9377 18.0547 15.626 18.0547H14.001C13.5868 18.0547 13.251 17.7189 13.251 17.3047C13.251 16.8905 13.5868 16.5547 14.001 16.5547H15.626C16.1092 16.5547 16.501 16.1629 16.501 15.6797C16.501 13.4015 14.6542 11.5547 12.376 11.5547H12.251C11.8368 11.5547 11.501 11.2189 11.501 10.8047Z" fill="#031413" fill-opacity="0.7"/>
</svg>
