<svg width="18" height="19" viewBox="0 0 18 19" fill="none" xmlns="http://www.w3.org/2000/svg">
<path id="Icon" fill-rule="evenodd" clip-rule="evenodd" d="M7.75098 1.55469C6.78448 1.55469 6.00098 2.33819 6.00098 3.30469C6.00098 3.7189 5.66519 4.05469 5.25098 4.05469H2.75098C2.06062 4.05469 1.50098 4.61433 1.50098 5.30469V7.14165C2.93433 7.48024 4.00098 8.7679 4.00098 10.3047C4.00098 11.8415 2.93433 13.1291 1.50098 13.4677V15.3047C1.50098 15.995 2.06062 16.5547 2.75098 16.5547H4.58794C4.92652 15.1213 6.21419 14.0547 7.75098 14.0547C9.28777 14.0547 10.5754 15.1213 10.914 16.5547H12.751C13.4413 16.5547 14.001 15.995 14.001 15.3047V12.8047C14.001 12.3905 14.3368 12.0547 14.751 12.0547C15.7175 12.0547 16.501 11.2712 16.501 10.3047C16.501 9.33819 15.7175 8.55469 14.751 8.55469C14.3368 8.55469 14.001 8.2189 14.001 7.80469L14.001 5.30469C14.001 4.61433 13.4413 4.05469 12.751 4.05469H10.251C9.83676 4.05469 9.50098 3.7189 9.50098 3.30469C9.50098 2.33819 8.71748 1.55469 7.75098 1.55469ZM4.58794 2.55469C4.92652 1.12134 6.21419 0.0546875 7.75098 0.0546875C9.28777 0.0546875 10.5754 1.12134 10.914 2.55469H12.751C14.2698 2.55469 15.501 3.7859 15.501 5.30469L15.501 7.14165C16.9343 7.48024 18.001 8.7679 18.001 10.3047C18.001 11.8415 16.9343 13.1291 15.501 13.4677V15.3047C15.501 16.8235 14.2698 18.0547 12.751 18.0547H10.251C9.83676 18.0547 9.50098 17.7189 9.50098 17.3047C9.50098 16.3382 8.71748 15.5547 7.75098 15.5547C6.78448 15.5547 6.00098 16.3382 6.00098 17.3047C6.00098 17.7189 5.66519 18.0547 5.25098 18.0547H2.75098C1.23219 18.0547 0.000976562 16.8235 0.000976562 15.3047V12.8047C0.000976562 12.3905 0.336763 12.0547 0.750977 12.0547C1.71747 12.0547 2.50098 11.2712 2.50098 10.3047C2.50098 9.33819 1.71748 8.55469 0.750977 8.55469C0.336763 8.55469 0.000976562 8.2189 0.000976562 7.80469V5.30469C0.000976562 3.7859 1.23219 2.55469 2.75098 2.55469H4.58794Z" fill="#031413" fill-opacity="0.7"/>
</svg>
