<svg width="20" height="20" viewBox="0 0 20 20" fill="none" xmlns="http://www.w3.org/2000/svg">
<g id="&#240;&#159;&#166;&#134; icon &#34;search normal 1&#34;">
<g id="Group">
<path id="Vector" d="M9.53426 19.0685C4.27879 19.0685 0 14.7897 0 9.53426C0 4.27879 4.27879 0 9.53426 0C14.7897 0 19.0685 4.27879 19.0685 9.53426C19.0685 14.7897 14.7897 19.0685 9.53426 19.0685ZM9.53426 1.39526C5.04153 1.39526 1.39526 5.05083 1.39526 9.53426C1.39526 14.0177 5.04153 17.6733 9.53426 17.6733C14.027 17.6733 17.6733 14.0177 17.6733 9.53426C17.6733 5.05083 14.027 1.39526 9.53426 1.39526Z" fill="#031413" fill-opacity="0.7"/>
<path id="Vector_2" d="M19.3056 19.9994C19.1289 19.9994 18.9522 19.9343 18.8127 19.7947L16.9523 17.9344C16.6826 17.6646 16.6826 17.2182 16.9523 16.9484C17.2221 16.6787 17.6685 16.6787 17.9383 16.9484L19.7986 18.8087C20.0684 19.0785 20.0684 19.525 19.7986 19.7947C19.6591 19.9343 19.4824 19.9994 19.3056 19.9994Z" fill="#031413" fill-opacity="0.7"/>
</g>
</g>
</svg>
